<svg width="50" height="37" viewBox="0 0 50 37" fill="none" xmlns="http://www.w3.org/2000/svg">
<path d="M43.5217 36.2237L43.5027 36.2356L43.4856 36.2502C43.1572 36.5325 42.7076 36.7 42.2021 36.7H2.23553C1.69145 36.7 1.20967 36.4929 0.861184 36.1647C0.513749 35.8376 0.3 35.3769 0.3 34.8957V8.02362C0.3 7.52793 0.512793 7.08268 0.861185 6.75463C1.20892 6.42719 1.70712 6.21896 2.23553 6.21896H2.25222H2.55222V6.21857H42.2188C42.7621 6.21857 43.2439 6.42589 43.593 6.75414C43.9402 7.08141 44.1543 7.54251 44.1543 8.02324V34.8953C44.1543 35.3909 43.9412 35.8363 43.5929 36.1649C43.5611 36.1948 43.545 36.209 43.5217 36.2237ZM8.57481 16.2346V16.2345C8.57444 14.7492 9.85875 13.5146 11.482 13.5146C13.1053 13.5146 14.3892 14.7488 14.3892 16.2346C14.3892 17.7205 13.1052 18.955 11.482 18.955C9.85885 18.955 8.57481 17.7205 8.57481 16.2346ZM24.7307 26.3432L24.9912 26.7296L25.2351 26.3325L31.3444 16.3866L37.7582 31.6631L6.70386 31.6627V30.2359L9.09127 30.124L9.27811 30.1152L9.35249 29.9436L11.6995 24.5277L12.7977 28.15L12.8623 28.3629H13.0848H17.0949H17.2957L17.3722 28.1772L20.6327 20.2639L24.7307 26.3432ZM9.20754 2.21617V2.20008H8.90754C8.31909 2.20008 7.87982 1.7506 7.87982 1.24985C7.87982 0.738568 8.33067 0.3 8.90754 0.3H48.6727C49.2606 0.3 49.7 0.74974 49.7 1.25023V27.6476C49.7 28.1596 49.2492 28.5982 48.6727 28.5982C48.0839 28.5982 47.6445 28.1484 47.6445 27.6476V2.51617V2.21617H47.3445H9.20754ZM42.0984 8.41942L42.0984 8.11942H41.7984H2.67214H2.37214V8.41942V34.4842V34.7842H2.67214H41.798H42.098L42.098 34.4842L42.0984 8.41942Z" stroke="#6C8B9B" strokeWidth="0.6"/>
</svg>
