<svg width="37" height="52" viewBox="0 0 37 52" fill="none" xmlns="http://www.w3.org/2000/svg">
<g id="Group">
<g id="Group_2">
<path id="Vector" d="M29.2716 4.06029C26.2607 1.82185 22.5297 0.5 18.4917 0.5C8.50255 0.50544 0.40744 8.61333 0.410157 18.6115C0.410157 21.2906 0.994396 23.8336 2.03787 26.121C2.04603 26.1374 2.67918 27.3858 2.68461 27.4021L3.8694 29.1972C3.88298 29.2108 4.98625 30.6414 4.99983 30.655L10.3341 38.8228L18.6792 51.5L21.9455 46.4166L21.8477 46.267L8.28788 25.7076C8.17103 25.5417 8.0569 25.3676 7.95092 25.1936C7.9482 25.1881 7.94277 25.1827 7.94005 25.1772C7.93733 25.1745 7.93462 25.1691 7.9319 25.1636C6.74712 23.2597 6.06233 21.0132 6.06233 18.6061C6.05962 11.7303 11.6248 6.1573 18.4944 6.15458C21.5895 6.15458 24.4183 7.28332 26.5949 9.15458C29.2526 11.4365 30.9346 14.82 30.9346 18.5979C30.9346 21.3531 30.0433 23.8989 28.527 25.9606C28.1738 26.442 27.7879 26.8989 27.3694 27.3232C27.3069 27.3885 27.2444 27.451 27.1792 27.5136C26.989 27.7013 26.7906 27.8835 26.5868 28.0576L26.5841 28.0603C26.4482 28.1773 26.3096 28.2915 26.171 28.4003C26.0297 28.5091 25.8884 28.6179 25.7417 28.7212C25.5949 28.8246 25.4482 28.9279 25.2988 29.0258C24.9727 29.238 24.6357 29.4365 24.2879 29.6188C24.1819 29.6759 24.0759 29.7303 23.9672 29.782C23.9401 29.7956 23.9156 29.8092 23.8884 29.8228C23.8613 29.8364 23.8368 29.8472 23.8096 29.8581C23.6738 29.9234 23.5352 29.986 23.3939 30.0458C23.2281 30.1192 23.0569 30.1872 22.8857 30.2498C22.8123 30.277 22.739 30.3042 22.6656 30.3314C22.5189 30.3831 22.3694 30.432 22.2199 30.481C22.1602 30.5 22.0977 30.519 22.0379 30.5354C21.9618 30.5571 21.8857 30.5789 21.8069 30.6006C21.6547 30.6442 21.4971 30.685 21.3422 30.7203C21.2634 30.7366 21.1846 30.7557 21.1058 30.772C20.4754 30.908 19.8259 30.995 19.1656 31.0304L25.6113 40.7131L26.8857 38.7303L28.1439 36.7557L25.9401 33.3858C26.5895 33.2498 27.2172 33.0703 27.8205 32.8418C27.8966 32.8119 27.9699 32.782 28.046 32.7548C28.1955 32.6949 28.345 32.6324 28.489 32.5671C28.5623 32.5345 28.6357 32.5018 28.7064 32.4665C28.7634 32.4393 28.8232 32.4121 28.8803 32.3821C29.0216 32.3141 29.1629 32.2434 29.2988 32.17C29.3667 32.1319 29.4346 32.0966 29.5026 32.0558C29.6629 31.966 29.8205 31.8735 29.9754 31.7756C30.1031 31.6967 30.2308 31.6124 30.3558 31.5281C30.3803 31.5118 30.4047 31.4955 30.4292 31.4792C30.4536 31.4628 30.4781 31.4465 30.5026 31.4275C30.6031 31.3595 30.6982 31.2915 30.796 31.2181C31.1113 30.9841 31.4129 30.7394 31.7064 30.481C31.8395 30.3613 31.9727 30.2389 32.1004 30.1138C32.2281 29.9887 32.3531 29.8608 32.4781 29.7303C32.6004 29.5997 32.72 29.4665 32.8368 29.3305C32.8368 29.3305 32.8368 29.3278 32.8395 29.3278C32.902 29.2543 33.4156 28.5744 33.4781 28.5009L34.1819 27.4211L35.0379 25.9497L35.046 25.9361V25.9334C36.0379 23.6895 36.5922 21.2063 36.5895 18.5925C36.5841 12.6414 33.7091 7.35675 29.2716 4.06029Z" fill="#D17100"/>
<path id="Vector_2" d="M18.4996 24.8291C21.9334 24.8291 24.717 22.043 24.717 18.6061C24.717 15.1692 21.9334 12.3831 18.4996 12.3831C15.0658 12.3831 12.2822 15.1692 12.2822 18.6061C12.2822 22.043 15.0658 24.8291 18.4996 24.8291Z" fill="#D17100"/>
</g>
</g>
</svg>
