<svg width="120" height="90" viewBox="0 0 120 90" fill="none" xmlns="http://www.w3.org/2000/svg">
<path d="M104.566 88.3078L104.535 88.328L104.506 88.3527C103.675 89.0768 102.545 89.5 101.285 89.5H5.36528C4.00461 89.5 2.7954 88.9747 1.91846 88.1378C1.04315 87.3024 0.5 86.1221 0.5 84.8815V19.5169C0.5 18.2401 1.04159 17.0975 1.91846 16.2606C2.79414 15.4249 4.04294 14.8975 5.36528 14.8975H5.40532H5.90532V14.8965H101.325C102.684 14.8965 103.893 15.4224 104.772 16.2595C105.646 17.0951 106.19 18.2764 106.19 19.516V84.8805C106.19 86.1569 105.648 87.2997 104.772 88.1378C104.694 88.2119 104.642 88.2597 104.566 88.3078ZM20.3595 39.4896V39.4895C20.3586 35.7305 23.5587 32.6436 27.5569 32.6436C31.555 32.6436 34.7542 35.7296 34.7542 39.4896C34.7542 43.2497 31.5549 46.3365 27.5569 46.3365C23.5588 46.3365 20.3595 43.2497 20.3595 39.4896ZM59.5344 63.9471L59.9703 64.6025L60.3783 63.9294L75.2632 39.3693L90.9546 77.248L15.8693 77.2471V73.3272L21.8091 73.045L22.1219 73.0302L22.2451 72.7422L28.1153 59.0134L30.9246 68.4045L31.0313 68.7612H31.4036H41.0277H41.3642L41.4909 68.4495L49.4718 48.8176L59.5344 63.9471ZM21.8781 5.62041V5.58127H21.3781C19.8616 5.58127 18.6916 4.40232 18.6916 3.04017C18.6916 1.6488 19.8932 0.5 21.3781 0.5H116.814C118.33 0.5 119.5 1.67968 119.5 3.0411V67.2509C119.5 68.6437 118.299 69.793 116.814 69.793C115.297 69.793 114.127 68.6132 114.127 67.2509V6.12041V5.62041H113.627H21.8781ZM100.816 20.4797L100.816 19.9797H100.316H6.41314H5.91314V20.4797V83.8805V84.3805H6.41314H100.315H100.815L100.815 83.8805L100.816 20.4797Z" stroke="#6C8B9B"/>
</svg>
