<svg xmlns="http://www.w3.org/2000/svg" width="80" height="80" viewBox="0 0 80 80" fill="none">
  <path d="M39.9999 73.3332C58.4099 73.3332 73.3332 58.4098 73.3332 39.9998C73.3332 21.5898 58.4099 6.6665 39.9999 6.6665C21.5899 6.6665 6.6665 21.5898 6.6665 39.9998C6.6665 45.3332 7.91983 50.3732 10.1432 54.8432C10.7365 56.0298 10.9332 57.3865 10.5899 58.6698L8.6065 66.0898C8.4108 66.8239 8.41153 67.5966 8.60863 68.3303C8.80573 69.064 9.19226 69.733 9.72947 70.2702C10.2667 70.8074 10.9357 71.1939 11.6694 71.391C12.4031 71.5881 13.1758 71.5889 13.9099 71.3932L21.3299 69.4098C22.6179 69.0857 23.9799 69.2434 25.1599 69.8532C29.7696 72.1486 34.8502 73.34 39.9999 73.3332Z" stroke="#0A3D58" stroke-width="3"/>
  <path opacity="0.5" d="M26.6665 35H53.3332M26.6665 46.6667H44.9999" stroke="#0A3D58" stroke-width="2" stroke-linecap="round"/>
</svg>