<svg xmlns="http://www.w3.org/2000/svg" width="80" height="80" viewBox="0 0 80 80" fill="none">
  <path d="M73.1667 43V39.6667C73.1667 27.0967 73.1667 20.81 69.26 16.9067C65.3567 13 59.07 13 46.5 13H33.1667C20.5967 13 14.31 13 10.4067 16.9067C6.5 20.81 6.5 27.0967 6.5 39.6667C6.5 52.2367 6.5 58.5233 10.4067 62.4267C14.31 66.3333 20.5967 66.3333 33.1667 66.3333H43.1667" stroke="#0A3D58" stroke-width="3" stroke-linecap="round"/>
  <path opacity="0.4" d="M33.1667 53H19.8333M6.5 33H73.1667" stroke="#0A3D58" stroke-width="3" stroke-linecap="round"/>
  <path d="M59.8335 66.3335C65.3563 66.3335 69.8335 61.8563 69.8335 56.3335C69.8335 50.8106 65.3563 46.3335 59.8335 46.3335C54.3106 46.3335 49.8335 50.8106 49.8335 56.3335C49.8335 61.8563 54.3106 66.3335 59.8335 66.3335Z" stroke="#0A3D58" stroke-width="3"/>
  <path d="M68.1665 64.6665L71.4999 67.9998" stroke="#0A3D58" stroke-width="3" stroke-linecap="round"/>
</svg>