<svg xmlns="http://www.w3.org/2000/svg" width="80" height="80" viewBox="0 0 80 80" fill="none">
  <path d="M9.5 17.5C12.5 17.8333 18.7 19.4 19.5 23C20.3 26.6 24.8333 42.1667 27 49.5M27 49.5C20.5 49.5 12.6248 56.6976 18.5 66C24.5 75.5 39.911 70 37.5 58M27 49.5C31.8 49.5 36.4954 53 37.5 58M37.5 58C49.0204 54.6805 67.5 50 67.5 50" stroke="#0A3D58" stroke-width="3" stroke-linecap="round" stroke-linejoin="round"/>
  <path opacity="0.5" d="M31.883 29.0998C30.2664 23.2498 29.4597 20.3232 30.833 18.0198C32.203 15.7132 35.2197 14.9298 41.253 13.3598L47.653 11.6998C53.6864 10.1332 56.703 9.34648 59.0797 10.6765C61.4564 12.0098 62.2664 14.9332 63.8797 20.7865L65.5964 26.9932C67.213 32.8432 68.023 35.7698 66.6497 38.0765C65.2764 40.3798 62.2597 41.1665 56.2264 42.7332L49.8264 44.3965C43.793 45.9632 40.7764 46.7465 38.3997 45.4165C36.023 44.0832 35.2164 41.1598 33.5997 35.3098L31.883 29.0998Z" stroke="#0A3D58" stroke-width="3"/>
</svg>