<svg width="80" height="80" viewBox="0 0 80 80" fill="none" xmlns="http://www.w3.org/2000/svg">
<path d="M58.0467 34.7133C60 32.76 60 29.62 60 23.3333C60 17.0467 60 13.9067 58.0467 11.9533M58.0467 34.7133C56.0933 36.6667 52.9533 36.6667 46.6667 36.6667H33.3333C27.0467 36.6667 23.9067 36.6667 21.9533 34.7133M58.0467 11.9533C56.0933 10 52.9533 10 46.6667 10H33.3333C27.0467 10 23.9067 10 21.9533 11.9533M21.9533 11.9533C20 13.9067 20 17.0467 20 23.3333C20 29.62 20 32.76 21.9533 34.7133" stroke="#0A3D58" stroke-width="3"/>
<path opacity="0.5" d="M43.3337 23.3333C43.3337 24.2174 42.9825 25.0652 42.3574 25.6904C41.7323 26.3155 40.8844 26.6667 40.0004 26.6667C39.1163 26.6667 38.2685 26.3155 37.6434 25.6904C37.0182 25.0652 36.667 24.2174 36.667 23.3333C36.667 22.4493 37.0182 21.6014 37.6434 20.9763C38.2685 20.3512 39.1163 20 40.0004 20C40.8844 20 41.7323 20.3512 42.3574 20.9763C42.9825 21.6014 43.3337 22.4493 43.3337 23.3333Z" stroke="#0A3D58" stroke-width="3"/>
<path opacity="0.5" d="M60 20C57.3479 20 54.8043 18.9464 52.929 17.0711C51.0536 15.1957 50 12.6522 50 10M60 26.6667C57.3479 26.6667 54.8043 27.7202 52.929 29.5956C51.0536 31.471 50 34.0145 50 36.6667M20 20C22.6522 20 25.1957 18.9464 27.0711 17.0711C28.9465 15.1957 30 12.6522 30 10M20 26.6667C22.6522 26.6667 25.1957 27.7202 27.0711 29.5956C28.9465 31.471 30 34.0145 30 36.6667" stroke="#0A3D58" stroke-width="3" stroke-linecap="round"/>
<path opacity="0.5" d="M13.3335 71.2935H20.8668C24.2335 71.2935 27.6435 71.6469 30.9201 72.3202C36.7701 73.522 42.7893 73.6553 48.6868 72.7135C51.5801 72.2469 54.4201 71.5302 56.9935 70.2902C59.3135 69.1669 62.1568 67.5902 64.0668 65.8202C65.9735 64.0535 67.9601 61.1635 69.3668 58.9035C70.5801 56.9635 69.9935 54.5869 68.0801 53.1435C67.005 52.3615 65.7097 51.9402 64.3801 51.9402C63.0506 51.9402 61.7553 52.3615 60.6801 53.1435L54.6568 57.6935C52.3235 59.4602 49.7735 61.0835 46.7368 61.5669C46.3701 61.6235 45.9868 61.6769 45.5868 61.7235M45.5868 61.7235C45.4647 61.7377 45.3425 61.751 45.2201 61.7635M45.5868 61.7235C46.1203 61.5792 46.6095 61.3043 47.0101 60.9235C47.5124 60.489 47.9226 59.9582 48.2164 59.3626C48.5103 58.767 48.6818 58.1185 48.721 57.4555C48.7601 56.7925 48.6661 56.1283 48.4444 55.5022C48.2227 54.8762 47.8778 54.3008 47.4301 53.8102C46.9958 53.328 46.4899 52.9154 45.9301 52.5869C36.6068 47.0235 22.0968 51.2602 13.3335 57.4769M45.5868 61.7235C45.4663 61.7498 45.3434 61.7632 45.2201 61.7635M45.2201 61.7635C43.2099 61.9656 41.1846 61.97 39.1735 61.7769" stroke="#0A3D58" stroke-width="3" stroke-linecap="round"/>
</svg>