<svg xmlns="http://www.w3.org/2000/svg" width="80" height="80" viewBox="0 0 80 80" fill="none">
  <path opacity="0.5" d="M56.6668 23.3332C56.6668 12.2865 50.0401 6.6665 40.0001 6.6665C29.9601 6.6665 23.3335 12.2865 23.3335 23.3332" stroke="#0A3D58" stroke-width="3" stroke-linecap="round"/>
  <path opacity="0.5" d="M40 40C40 40 40 45.079 40 48.3334" stroke="#0A3D58" stroke-width="3" stroke-linecap="round"/>
  <path d="M39.6289 30.7512C33.7956 25.9179 22.444 18.3462 12.6289 30.7512C4.02401 41.6266 12.7956 55.2511 17.6289 60.251C22.1288 64.4177 32.8286 73.351 39.6289 75.751" stroke="#0A3D58" stroke-width="3" stroke-linecap="round" stroke-linejoin="round"/>
  <path d="M39.9434 30.8462C45.7767 26.0129 56.6283 18.6925 66.4434 31.0975C75.0483 41.9729 66.2767 55.5974 61.4434 60.5973C56.9435 64.764 46.7437 73.4462 39.9434 75.8462" stroke="#0A3D58" stroke-width="3" stroke-linecap="round" stroke-linejoin="round"/>
</svg>